<?xml version="1.0" encoding="iso-8859-1"?>
<!-- Generator: Adobe Illustrator 19.0.0, SVG Export Plug-In . SVG Version: 6.00 Build 0)  -->
<svg version="1.1" id="Capa_1" xmlns="http://www.w3.org/2000/svg" xmlns:xlink="http://www.w3.org/1999/xlink" x="0px" y="0px"
	 viewBox="0 0 480 480" style="enable-background:new 0 0 480 480;" xml:space="preserve">
<g>
	<g>
		<path d="M240,0C156.091,0.093,88.093,68.091,88,152v176c0,83.947,68.053,152,152,152s152-68.053,152-152V152
			C391.907,68.091,323.909,0.093,240,0z M256,80v48c0,8.837-7.163,16-16,16s-16-7.163-16-16V80c0-8.837,7.163-16,16-16
			S256,71.163,256,80z M104,152c0.119-71.926,56.2-131.333,128-135.592v32.728C217.915,52.773,208.055,65.453,208,80v48
			c0.055,14.547,9.915,27.227,24,30.864V192H104V152z M376,328c-0.084,75.076-60.924,135.916-136,136
			c-75.076-0.084-135.916-60.924-136-136V208h272V328z M376,192H248v-33.136c14.086-3.637,23.945-16.317,24-30.864V80
			c-0.055-14.547-9.914-27.227-24-30.864V16.408C319.8,20.667,375.881,80.074,376,152V192z"/>
	</g>
</g>
<g>
</g>
<g>
</g>
<g>
</g>
<g>
</g>
<g>
</g>
<g>
</g>
<g>
</g>
<g>
</g>
<g>
</g>
<g>
</g>
<g>
</g>
<g>
</g>
<g>
</g>
<g>
</g>
<g>
</g>
</svg>
