<?xml version="1.0" encoding="UTF-8"?>
<svg xmlns="http://www.w3.org/2000/svg" viewBox="0 0 64 64" width="512" height="512"><g id="mobilephone-hand-technology-device-smartphone"><path d="M20,7h2a1,1,0,0,0,0-2H20a1,1,0,0,0,0,2Z"/><path d="M12,49a1,1,0,0,0-2,0v4a1,1,0,0,0,1,1h4a1,1,0,0,0,0-2H12Z"/><path d="M30,15a1,1,0,0,0,2,0V11a1,1,0,0,0-1-1H27a1,1,0,0,0,0,2h3Z"/><path d="M51,47a1,1,0,0,0-1,1v1a1,1,0,0,0,2,0V48A1,1,0,0,0,51,47Z"/><path d="M61,36H56V35a1,1,0,0,0-1-1H47a1,1,0,0,0-1,1v1H44.27a2.97,2.97,0,0,1-1.66-.5L40,33.76V7a5,5,0,0,0-5-5H7A5,5,0,0,0,2,7V57a5,5,0,0,0,5,5H35a5,5,0,0,0,5-5V53.99a5.081,5.081,0,0,0,2.57-.83l.97-.66a3,3,0,0,1,1.67-.5H46v1a1,1,0,0,0,1,1h8a1,1,0,0,0,1-1V52h5a1,1,0,0,0,1-1V37A1,1,0,0,0,61,36ZM38,57a3.009,3.009,0,0,1-3,3H7a3.009,3.009,0,0,1-3-3V7A3.009,3.009,0,0,1,7,4H35a3.009,3.009,0,0,1,3,3V32.43L36,31.1V9a3.009,3.009,0,0,0-3-3H27.83a3.04,3.04,0,0,0-2.12.87l-.83.83a1.017,1.017,0,0,1-.71.3H17.83a1.009,1.009,0,0,1-.7-.29l-.85-.85A3.033,3.033,0,0,0,14.17,6H9A3.009,3.009,0,0,0,6,9V55a3.009,3.009,0,0,0,3,3H33a3.009,3.009,0,0,0,3-3V54h2ZM30.33,34.9,31.88,36H17a3,3,0,0,0,0,6h7.18A3,3,0,0,0,24,43a2.974,2.974,0,0,0,.78,2,2.954,2.954,0,0,0,0,4A2.974,2.974,0,0,0,24,51a3.009,3.009,0,0,0,3,3h7v1a1,1,0,0,1-1,1H9a1,1,0,0,1-1-1V9A1,1,0,0,1,9,8h5.17a1.009,1.009,0,0,1,.7.29l.85.85a3.033,3.033,0,0,0,2.11.86h6.34a3.04,3.04,0,0,0,2.12-.87l.83-.83a1.017,1.017,0,0,1,.71-.3H33a1,1,0,0,1,1,1V29.76l-2.39-1.58a.985.985,0,0,0-1.25.11l-.5.49a4.01,4.01,0,0,0,.47,6.12ZM46,50h-.79a5.016,5.016,0,0,0-2.78.84l-.97.65a2.989,2.989,0,0,1-1.58.51H27a1,1,0,0,1,0-2h2a1,1,0,0,0,0-2H27a1,1,0,0,1,0-2h2a1,1,0,0,0,0-2H27a1,1,0,0,1,0-2h2a1,1,0,0,0,0-2H17a1,1,0,0,1,0-2H35a1,1,0,0,0,.58-1.81L31.5,33.27a2.015,2.015,0,0,1-.32-2.98L41.5,37.16a4.983,4.983,0,0,0,2.77.84H46Zm8,2H48V36h6Zm6-2H56V38h4Z"/></g></svg>
